<?xml version="1.0" standalone="no"?>
<!DOCTYPE svg PUBLIC "-//W3C//DTD SVG 20010904//EN"
 "http://www.w3.org/TR/2001/REC-SVG-20010904/DTD/svg10.dtd">
<svg version="1.0" xmlns="http://www.w3.org/2000/svg"
 width="499.000000pt" height="499.000000pt" viewBox="0 0 499.000000 499.000000"
 preserveAspectRatio="xMidYMid meet">

<g transform="translate(0.000000,499.000000) scale(0.100000,-0.100000)"
fill="#000000" stroke="none">
<path d="M2255 4120 c-308 -48 -544 -155 -808 -367 -46 -37 -90 -64 -105 -65
-15 -1 -124 -2 -242 -3 -203 0 -218 -1 -274 -24 -75 -30 -148 -97 -182 -167
-20 -40 -28 -76 -32 -146 l-7 -93 -53 -7 c-101 -15 -186 -68 -225 -142 -27
-50 -28 -145 -3 -281 35 -198 18 -266 -81 -311 -41 -18 -42 -30 -3 -39 17 -4
46 -21 65 -40 33 -30 35 -37 35 -94 0 -34 -7 -107 -16 -164 -22 -142 -22 -243
0 -285 37 -71 125 -132 212 -147 74 -13 71 -9 77 -98 9 -116 30 -172 91 -232
92 -92 136 -103 444 -112 l223 -6 76 -64 c111 -91 212 -157 338 -218 258 -124
498 -174 778 -162 366 17 704 149 988 387 l71 60 184 0 c290 0 396 23 477 104
63 63 91 144 99 286 3 36 7 45 23 48 86 11 130 27 183 67 96 70 109 128 77
350 -9 60 -16 140 -16 178 -1 62 2 72 27 98 15 16 43 34 63 40 53 17 57 25 18
38 -49 16 -107 82 -109 124 -3 54 3 117 18 212 8 50 14 122 14 161 0 63 -3 76
-30 112 -52 73 -123 113 -242 137 -26 5 -28 9 -28 53 -1 179 -89 312 -237 359
-46 14 -94 18 -233 19 -319 3 -275 -6 -374 74 -372 303 -825 430 -1281 360z
m543 -149 c249 -53 469 -159 668 -323 l71 -58 207 0 c234 0 287 -9 359 -64 49
-37 102 -112 117 -164 5 -20 10 -65 10 -98 l0 -62 47 -7 c89 -13 175 -72 214
-147 23 -46 24 -112 3 -233 -9 -49 -17 -118 -17 -152 -2 -55 1 -65 27 -92 16
-17 53 -40 82 -52 29 -12 51 -26 48 -30 -2 -4 -26 -15 -54 -24 -27 -9 -60 -25
-74 -36 -24 -19 -26 -27 -26 -92 0 -40 7 -112 15 -162 30 -180 12 -253 -79
-324 -39 -31 -119 -61 -163 -61 -22 0 -23 -4 -23 -64 0 -131 -64 -237 -178
-293 -57 -28 -58 -28 -286 -31 l-228 -3 -87 -70 c-273 -222 -602 -339 -953
-339 -155 0 -249 12 -397 51 -205 54 -392 150 -563 288 l-86 70 -228 3 c-228
3 -229 3 -286 31 -114 56 -178 162 -178 293 l0 64 -30 0 c-78 0 -194 70 -229
139 -31 61 -33 99 -12 238 28 179 28 228 -3 256 -14 13 -49 31 -80 40 -30 10
-58 22 -61 26 -3 5 18 17 47 28 28 10 67 32 85 49 30 28 33 37 33 89 0 31 -9
111 -21 177 -22 129 -20 167 11 229 35 67 122 123 213 135 l45 6 4 82 c7 127
67 219 176 273 57 28 59 28 287 31 l230 3 70 58 c223 185 487 301 775 341 106
15 391 4 498 -19z"/>
<path d="M2330 3914 c-287 -35 -593 -172 -791 -354 l-54 -49 -222 -1 c-255 0
-300 -10 -365 -77 -54 -57 -61 -79 -67 -198 l-6 -110 -71 -6 c-82 -8 -143 -35
-177 -81 -38 -51 -39 -67 -17 -196 11 -65 20 -150 20 -189 0 -59 -4 -76 -29
-115 -26 -41 -28 -48 -15 -59 9 -7 22 -26 31 -43 18 -35 14 -161 -11 -316 -19
-114 -12 -145 45 -193 47 -41 97 -57 173 -57 l56 0 0 -102 c0 -117 15 -162 70
-215 66 -64 81 -67 345 -73 l240 -5 75 -64 c195 -168 442 -281 714 -327 132
-22 390 -15 523 15 239 53 454 159 636 314 l79 67 222 0 c143 0 235 4 257 12
60 20 117 68 144 122 22 44 25 63 25 153 l0 103 63 0 c78 0 160 38 194 89 27
41 29 80 7 211 -8 52 -16 130 -16 172 -1 68 2 82 26 118 l27 41 -21 26 c-44
56 -47 126 -14 307 19 108 18 152 -7 192 -33 54 -95 85 -184 91 l-75 6 0 99
c0 146 -37 213 -145 264 -48 23 -59 24 -276 24 l-227 0 -71 60 c-195 163 -386
259 -631 316 -84 20 -138 26 -275 29 -93 2 -186 1 -205 -1z m-957 -577 c120
-51 169 -186 133 -367 -10 -46 -44 -163 -77 -260 -60 -180 -73 -255 -45 -266
86 -33 285 302 436 736 55 157 54 156 183 166 73 6 87 4 92 -9 6 -13 -190
-819 -210 -869 -11 -27 10 -22 74 16 75 46 107 83 115 131 18 104 107 226 203
277 114 62 270 77 330 31 27 -20 28 -22 27 -119 -1 -78 -7 -117 -28 -182 -15
-46 -25 -90 -22 -98 11 -29 91 -9 127 32 9 11 21 57 28 104 22 147 101 380
187 551 l33 66 91 32 c129 45 142 47 165 21 16 -17 21 -40 23 -105 5 -99 -14
-181 -63 -282 -34 -68 -148 -227 -193 -267 -44 -38 -37 -192 10 -217 32 -17
88 4 160 62 54 43 64 57 75 100 29 112 130 230 250 290 56 28 79 33 134 34 60
0 71 -3 106 -31 l39 -31 64 33 c67 34 147 47 138 22 -44 -119 -111 -363 -112
-408 -1 -53 0 -55 23 -52 14 1 55 29 92 62 37 33 70 60 73 60 3 0 6 -28 6 -62
0 -63 0 -63 -48 -103 -124 -106 -174 -135 -231 -135 -64 0 -110 43 -126 118
l-7 34 -52 -53 c-66 -67 -141 -103 -203 -96 -64 7 -95 33 -148 121 -9 15 -16
13 -65 -24 -123 -92 -238 -122 -317 -82 -46 24 -90 72 -99 108 -6 22 -7 23
-34 9 -47 -24 -102 -29 -145 -11 l-38 16 -45 -45 c-115 -117 -268 -126 -357
-22 -19 22 -35 47 -35 54 0 18 1 18 -82 -26 -40 -21 -94 -46 -119 -56 -44 -16
-49 -21 -93 -112 -83 -165 -201 -262 -332 -271 -73 -5 -115 13 -144 61 -61 99
25 216 217 298 l79 33 36 135 c20 75 35 137 33 139 -1 1 -20 -28 -41 -65 -55
-96 -175 -215 -238 -236 -92 -31 -157 -17 -213 46 -74 84 -69 201 18 454 99
287 111 354 69 398 -27 28 -49 31 -88 11 -79 -41 -123 -149 -90 -221 6 -14 15
-25 19 -25 5 0 16 -11 25 -25 20 -31 8 -68 -35 -109 -60 -57 -135 -21 -161 76
-33 122 77 325 212 392 60 30 156 35 211 13z m645 -1194 c2 -9 -7 -13 -26 -13
-28 0 -31 -3 -41 -50 -6 -28 -11 -56 -11 -63 0 -7 -5 -29 -11 -49 -7 -27 -16
-38 -29 -38 -29 0 -31 12 -15 86 21 101 20 116 -9 108 -27 -7 -46 13 -25 27
21 14 162 6 167 -8z m786 5 c14 -6 28 -19 31 -28 8 -24 -10 -67 -35 -82 -23
-15 -25 -35 -5 -62 20 -27 19 -46 -3 -46 -22 0 -47 25 -56 58 -9 28 -26 29
-26 1 0 -44 -37 -77 -55 -48 -11 16 27 193 44 207 19 15 72 16 105 0z m569
-19 c-1 -23 2 -24 35 -21 51 6 61 -12 50 -90 -10 -65 -27 -96 -48 -83 -8 5 -9
26 -5 70 5 39 3 65 -3 69 -15 9 -41 -31 -48 -74 -11 -62 -17 -66 -85 -68 -75
-2 -99 14 -99 65 0 71 53 121 118 111 25 -3 31 0 40 25 14 37 48 34 45 -4z
m-1217 -84 c-11 -107 -15 -112 -82 -111 -52 1 -60 4 -73 27 -14 24 -13 31 4
69 26 57 58 80 113 80 l45 0 -7 -65z m152 48 c2 -9 -7 -13 -26 -13 -41 0 -64
-29 -60 -77 3 -33 6 -38 31 -41 15 -2 27 -9 27 -18 0 -20 -74 -19 -94 2 -57
57 0 169 83 162 19 -2 36 -9 39 -15z m140 -1 c18 -18 19 -18 42 0 16 13 36 18
59 16 43 -4 47 -21 6 -28 -37 -7 -42 -25 -11 -45 13 -9 27 -23 30 -31 8 -22
-15 -64 -40 -70 -36 -9 -79 0 -79 16 0 11 9 14 31 12 43 -4 50 20 14 47 -36
26 -40 26 -40 2 0 -10 -13 -33 -29 -50 -23 -25 -37 -31 -68 -31 -56 0 -78 26
-70 82 11 80 106 129 155 80z m545 4 c3 -8 2 -30 -4 -48 -5 -18 -9 -47 -9 -64
0 -39 -23 -62 -44 -45 -10 8 -16 9 -21 1 -9 -14 -58 -13 -73 2 -29 29 -5 121
40 152 29 20 104 21 111 2z m166 -4 c5 -10 4 -40 -3 -77 -13 -69 -21 -85 -43
-85 -13 0 -15 10 -9 69 4 39 3 72 -2 75 -17 10 -41 -28 -49 -78 -9 -51 -36
-83 -51 -59 -8 13 8 140 20 159 4 6 34 11 67 12 48 1 62 -2 70 -16z m460 0
c22 -41 -22 -92 -79 -92 -37 0 -20 -34 18 -38 45 -4 36 -26 -12 -30 -50 -4
-76 19 -76 67 0 39 29 91 57 103 36 14 82 9 92 -10z m121 4 c0 -7 -11 -18 -24
-24 -23 -10 -36 -40 -48 -106 -3 -22 -33 -44 -44 -33 -10 10 14 159 26 167 20
12 90 9 90 -4z m131 4 c10 -6 19 -17 19 -25 0 -9 9 -6 25 11 20 20 34 25 63
22 44 -4 48 -21 7 -28 -38 -7 -43 -32 -10 -50 29 -16 34 -54 8 -82 -23 -25
-106 -26 -101 0 3 13 12 16 36 14 25 -3 32 0 32 15 0 10 -13 25 -29 35 -29 16
-29 16 -36 -9 -3 -14 -17 -36 -30 -49 -29 -29 -89 -33 -117 -7 -21 19 -24 77
-4 112 25 45 92 65 137 41z m-1086 -200 c3 -6 3 -19 0 -30 -8 -24 -53 -28 -61
-5 -12 31 44 63 61 35z m-760 -35 c0 -11 8 -23 18 -27 24 -10 17 -32 -10 -36
-17 -3 -23 -15 -33 -67 -13 -71 -9 -95 16 -95 19 0 14 -19 -8 -33 -20 -13 -65
-1 -77 21 -6 12 -5 43 5 92 8 41 12 80 9 87 -4 11 6 36 28 71 13 20 52 10 52
-13z m224 -41 c4 -4 -16 -164 -25 -196 -6 -19 -49 -25 -59 -8 -4 6 -15 4 -30
-6 -32 -21 -70 -12 -92 22 -14 22 -15 32 -5 70 26 96 78 139 157 129 27 -4 52
-8 54 -11z m191 10 c30 -6 32 -9 27 -38 -3 -17 -13 -76 -22 -131 -25 -155 -22
-147 -53 -143 -25 3 -27 6 -24 46 l2 42 -38 -6 c-34 -5 -42 -3 -61 22 -55 70
19 212 110 214 15 0 41 -3 59 -6z m722 -12 c4 -4 -1 -52 -10 -107 -17 -96 -19
-100 -45 -103 -15 -2 -27 2 -27 8 0 6 -10 4 -25 -6 -31 -20 -81 -11 -96 18
-28 53 15 162 76 193 30 16 110 14 127 -3z m153 -7 c0 -16 -6 -19 -28 -17 -33
4 -58 -13 -50 -34 3 -7 20 -23 39 -35 41 -25 46 -64 11 -97 -44 -42 -137 -42
-137 -1 0 19 4 21 39 15 29 -4 42 -2 52 10 11 14 10 19 -11 36 -54 42 -60 48
-60 67 0 26 36 69 63 74 12 3 36 4 52 3 23 -1 30 -6 30 -21z m-761 -15 c-1
-14 -5 -53 -9 -87 -7 -55 -6 -63 8 -63 25 0 45 39 60 111 12 61 14 64 42 64
24 0 29 -4 27 -20 -1 -11 -8 -58 -15 -105 l-13 -85 -45 -1 c-25 0 -50 -4 -56
-7 -20 -12 -72 5 -79 25 -6 22 13 154 28 181 15 28 53 18 52 -13z m219 23 c3
-5 -3 -53 -12 -108 -16 -95 -18 -100 -42 -103 -15 -2 -29 3 -31 10 -4 9 23
185 31 206 2 6 50 1 54 -5z m187 -4 c0 -6 -23 -42 -51 -81 -71 -97 -71 -99
-14 -91 43 5 47 4 43 -13 -3 -17 -14 -19 -92 -22 -104 -3 -103 -8 -21 102 l56
76 -40 0 c-40 0 -57 11 -46 30 9 14 165 13 165 -1z m-1216 -61 c3 -13 6 -33 6
-45 0 -37 17 -26 32 20 11 30 21 43 36 45 32 5 28 -13 -22 -121 -44 -96 -77
-132 -112 -125 -28 5 -28 27 -1 37 35 13 39 25 28 68 -5 21 -12 62 -16 91 -7
51 -6 52 18 52 17 0 27 -7 31 -22z"/>
<path d="M3096 3148 c-33 -70 -100 -287 -92 -295 6 -6 63 88 95 157 38 83 60
185 43 202 -9 9 -20 -6 -46 -64z"/>
<path d="M2394 2835 c-17 -13 -44 -52 -60 -87 -26 -56 -29 -74 -29 -164 0 -86
3 -105 19 -123 26 -29 55 -26 96 7 l33 28 -28 58 c-48 99 -45 189 10 271 21
30 22 35 7 35 -9 0 -31 -11 -48 -25z"/>
<path d="M3561 2824 c-49 -41 -112 -179 -118 -257 -5 -61 -4 -66 20 -82 33
-21 58 -13 98 32 73 84 129 257 100 311 -16 30 -62 29 -100 -4z"/>
<path d="M1504 2205 c-74 -44 -104 -78 -104 -116 0 -34 17 -44 56 -35 45 12
90 73 118 164 10 30 0 28 -70 -13z"/>
<path d="M2736 2118 c-15 -48 -16 -68 -2 -68 37 0 62 62 30 74 -22 8 -24 8
-28 -6z"/>
<path d="M3246 2064 c-20 -20 -30 -57 -21 -83 5 -16 15 -21 39 -21 32 0 32 1
42 60 l10 60 -27 0 c-15 0 -35 -7 -43 -16z"/>
<path d="M2066 2058 c-23 -37 -24 -88 -2 -88 21 0 33 20 41 68 6 34 4 42 -9
42 -8 0 -22 -10 -30 -22z"/>
<path d="M2355 2046 c-20 -46 -19 -75 2 -83 25 -10 55 33 51 76 -4 51 -33 54
-53 7z"/>
<path d="M2896 2058 c-17 -24 -22 -83 -7 -92 15 -10 43 32 48 73 5 33 3 41
-10 41 -9 0 -23 -10 -31 -22z"/>
<path d="M3543 2068 c-16 -21 -23 -48 -13 -48 16 0 51 40 45 50 -8 14 -21 12
-32 -2z"/>
<path d="M3791 2066 c-7 -8 -15 -33 -18 -55 -5 -33 -2 -42 12 -47 27 -11 57
31 53 75 -3 39 -26 52 -47 27z"/>
<path d="M2120 1768 c-24 -40 -27 -106 -5 -114 22 -9 44 13 54 55 23 94 23 91
-4 91 -18 0 -31 -10 -45 -32z"/>
<path d="M2353 1792 c-19 -12 -41 -74 -37 -106 4 -35 8 -39 32 -32 22 7 36 38
51 104 8 39 7 42 -13 42 -11 0 -26 -4 -33 -8z"/>
<path d="M3041 1779 c-25 -27 -39 -105 -22 -122 26 -26 63 24 76 101 6 38 5
42 -14 42 -11 0 -29 -10 -40 -21z"/>
</g>
</svg>
